<svg id="visual" viewBox="0 0 900 600" width="900" height="600" xmlns="http://www.w3.org/2000/svg" xmlns:xlink="http://www.w3.org/1999/xlink" version="1.1"><path d="M0 439L12.5 443.3C25 447.7 50 456.3 75 455.5C100 454.7 125 444.3 150 442C175 439.7 200 445.3 225 447.3C250 449.3 275 447.7 300 448.5C325 449.3 350 452.7 375 451C400 449.3 425 442.7 450 441.5C475 440.3 500 444.7 525 448C550 451.3 575 453.7 600 451.5C625 449.3 650 442.7 675 441.7C700 440.7 725 445.3 750 449.5C775 453.7 800 457.3 825 454.8C850 452.3 875 443.7 887.5 439.3L900 435L900 601L887.5 601C875 601 850 601 825 601C800 601 775 601 750 601C725 601 700 601 675 601C650 601 625 601 600 601C575 601 550 601 525 601C500 601 475 601 450 601C425 601 400 601 375 601C350 601 325 601 300 601C275 601 250 601 225 601C200 601 175 601 150 601C125 601 100 601 75 601C50 601 25 601 12.5 601L0 601Z" fill="#0066ff"></path><path d="M0 474L12.5 476C25 478 50 482 75 482.2C100 482.3 125 478.7 150 476C175 473.3 200 471.7 225 472.8C250 474 275 478 300 479.5C325 481 350 480 375 478.8C400 477.7 425 476.3 450 475C475 473.7 500 472.3 525 474.3C550 476.3 575 481.7 600 483C625 484.3 650 481.7 675 480.5C700 479.3 725 479.7 750 481.7C775 483.7 800 487.3 825 488.7C850 490 875 489 887.5 488.5L900 488L900 601L887.5 601C875 601 850 601 825 601C800 601 775 601 750 601C725 601 700 601 675 601C650 601 625 601 600 601C575 601 550 601 525 601C500 601 475 601 450 601C425 601 400 601 375 601C350 601 325 601 300 601C275 601 250 601 225 601C200 601 175 601 150 601C125 601 100 601 75 601C50 601 25 601 12.5 601L0 601Z" fill="#0080ff"></path><path d="M0 526L12.5 526.3C25 526.7 50 527.3 75 524.5C100 521.7 125 515.3 150 515.3C175 515.3 200 521.7 225 522.3C250 523 275 518 300 517.3C325 516.7 350 520.3 375 522.7C400 525 425 526 450 525.3C475 524.7 500 522.3 525 520.7C550 519 575 518 600 518.3C625 518.7 650 520.3 675 520C700 519.7 725 517.3 750 515.7C775 514 800 513 825 513.2C850 513.3 875 514.7 887.5 515.3L900 516L900 601L887.5 601C875 601 850 601 825 601C800 601 775 601 750 601C725 601 700 601 675 601C650 601 625 601 600 601C575 601 550 601 525 601C500 601 475 601 450 601C425 601 400 601 375 601C350 601 325 601 300 601C275 601 250 601 225 601C200 601 175 601 150 601C125 601 100 601 75 601C50 601 25 601 12.5 601L0 601Z" fill="#1e97fd"></path><path d="M0 553L12.5 553.3C25 553.7 50 554.3 75 554.3C100 554.3 125 553.7 150 552.3C175 551 200 549 225 548.7C250 548.3 275 549.7 300 550C325 550.3 350 549.7 375 550.3C400 551 425 553 450 553.5C475 554 500 553 525 551.3C550 549.7 575 547.3 600 548.2C625 549 650 553 675 554.5C700 556 725 555 750 553.5C775 552 800 550 825 548.5C850 547 875 546 887.5 545.5L900 545L900 601L887.5 601C875 601 850 601 825 601C800 601 775 601 750 601C725 601 700 601 675 601C650 601 625 601 600 601C575 601 550 601 525 601C500 601 475 601 450 601C425 601 400 601 375 601C350 601 325 601 300 601C275 601 250 601 225 601C200 601 175 601 150 601C125 601 100 601 75 601C50 601 25 601 12.5 601L0 601Z" fill="#4facf7"></path></svg>